<?xml version="1.0" encoding="UTF-8"?>
<svg xmlns="http://www.w3.org/2000/svg" width="513.190625" height="826">
   <defs>
      <style type="text/css">
                        text {
                            font-family: 'Arial';
                            fill: black;
                        }
                        text.at {
                            font-family: 'Arial';
                            fill: rgb(242, 152, 0);
                        }
                        line {
                            stroke: black;
                        }
                        line.type-structure {
                            stroke: black;
                        }
                        line.type-structure-optional {
                            stroke: black;
                            stroke-dasharray: 4, 4;
                        }
                        rect.attribute-upper {
                            stroke: black;
                            fill: rgb(255, 239, 211);
                        }
                        rect.element-upper {
                            stroke: black;
                            fill: rgb(215, 227, 249);
                        }
                        rect.element-lower {
                            stroke: black;
                            fill: rgb(236, 242, 252);
                        }
                        a text {
                            fill: black;
                        } 
                    </style>
   </defs>
   <rect width="503.19062499999995"
         height="816"
         stroke-dasharray="3,3"
         rx="1"
         ry="1"
         style="stroke: grey;fill: white;"/>
   <text font-size="14" x="3.6" y="18" font-weight="bold">element immatrikulationsbescheinigungBAfoeGP9 (anonymous type)</text>
   <text font-size="12" x="3.6" y="34.8"> (extension of xhs:Dokument)</text>
   <g transform="translate(10,46)">
      <g transform="translate(55,0)">
         <rect width="149.56562499999998" height="18" class="element-upper"/>
         <rect width="149.56562499999998"
               height="18"
               y="18"
               class="element-lower"/>
         <text font-size="12" x="3.6" y="12" font-weight="bold">ausstellendeHochschule</text>
         <line x1="0" y1="18" x2="149.56562499999998" y2="18"/>
         <text font-size="12" fill="grey" x="3.6" y="30">type</text>
         <line x1="31.753125" y1="18" x2="31.753125" y2="36"/>
         <text font-size="12" x="35.353125" y="30">xhs:Hochschule</text>
         <g transform="translate(149.56562499999998,0)"/>
      </g>
      <line x1="33"
            y1="18"
            x2="55"
            y2="18"
            class="type-structure-required"/>
      <text font-size="11" fill="black" x="53" y="16" text-anchor="end"/>
      <line x1="33"
            y1="18"
            x2="33"
            y2="18"
            class="type-structure-required"/>
      <g transform="translate(55,48)">
         <rect width="83.346875" height="18" class="element-upper"/>
         <rect width="83.346875" height="18" y="18" class="element-lower"/>
         <text font-size="12" x="3.6" y="12" font-weight="bold">studierender</text>
         <line x1="0" y1="18" x2="83.346875" y2="18"/>
         <text font-size="12" fill="grey" x="3.6" y="30">type</text>
         <line x1="31.753125" y1="18" x2="31.753125" y2="36"/>
         <g transform="translate(83.346875,0)">
            <g transform="translate(55,0)">
               <rect width="54.765625" height="18" class="element-upper"/>
               <rect width="54.765625" height="18" y="18" class="element-lower"/>
               <text font-size="12" x="3.6" y="12" font-weight="bold">name</text>
               <line x1="0" y1="18" x2="54.765625" y2="18"/>
               <text font-size="12" fill="grey" x="3.6" y="30">type</text>
               <line x1="31.753125" y1="18" x2="31.753125" y2="36"/>
               <g transform="translate(54.765625,0)">
                  <g transform="translate(55,0)">
                     <rect width="160.03125" height="18" class="element-upper"/>
                     <rect width="160.03125" height="18" y="18" class="element-lower"/>
                     <text font-size="12" x="3.6" y="12" font-weight="bold">familienname</text>
                     <line x1="0" y1="18" x2="160.03125" y2="18"/>
                     <text font-size="12" fill="grey" x="3.6" y="30">type</text>
                     <line x1="31.753125" y1="18" x2="31.753125" y2="36"/>
                     <text font-size="12" x="35.353125" y="30">xhs:AllgemeinerName</text>
                     <g transform="translate(160.03125,0)"/>
                  </g>
                  <line x1="33"
                        y1="18"
                        x2="55"
                        y2="18"
                        class="type-structure-required"/>
                  <text font-size="11" fill="black" x="53" y="16" text-anchor="end"/>
                  <line x1="33"
                        y1="18"
                        x2="33"
                        y2="18"
                        class="type-structure-required"/>
                  <g transform="translate(55,48)">
                     <rect width="160.03125" height="18" class="element-upper"/>
                     <rect width="160.03125" height="18" y="18" class="element-lower"/>
                     <text font-size="12" x="3.6" y="12" font-weight="bold">vorname</text>
                     <line x1="0" y1="18" x2="160.03125" y2="18"/>
                     <text font-size="12" fill="grey" x="3.6" y="30">type</text>
                     <line x1="31.753125" y1="18" x2="31.753125" y2="36"/>
                     <text font-size="12" x="35.353125" y="30">xhs:AllgemeinerName</text>
                     <g transform="translate(160.03125,0)"/>
                  </g>
                  <line x1="33"
                        y1="66"
                        x2="55"
                        y2="66"
                        class="type-structure-optional"/>
                  <text font-size="11" fill="black" x="53" y="64" text-anchor="end">0..1</text>
                  <line x1="33"
                        y1="18"
                        x2="33"
                        y2="66"
                        class="type-structure-optional"/>
                  <circle cx="15"
                          cy="18"
                          r="10"
                          stroke="black"
                          fill="rgb(251, 251, 251)"/>
                  <line x1="0"
                        y1="18"
                        x2="5"
                        y2="18"
                        class="type-structure-required"/>
                  <line x1="25"
                        y1="18"
                        x2="33"
                        y2="18"
                        class="type-structure-required"/>
                  <circle cx="10" cy="18" r="1.2" stroke="black" fill="black"/>
                  <circle cx="15" cy="18" r="1.2" stroke="black" fill="black"/>
                  <circle cx="20" cy="18" r="1.2" stroke="black" fill="black"/>
                  <line x1="7" y1="18" x2="23" y2="18"/>
               </g>
            </g>
            <line x1="33"
                  y1="18"
                  x2="55"
                  y2="18"
                  class="type-structure-required"/>
            <text font-size="11" fill="black" x="53" y="16" text-anchor="end"/>
            <line x1="33"
                  y1="18"
                  x2="33"
                  y2="18"
                  class="type-structure-required"/>
            <g transform="translate(55,96)">
               <rect width="54.765625" height="18" class="element-upper"/>
               <rect width="54.765625" height="18" y="18" class="element-lower"/>
               <text font-size="12" x="3.6" y="12" font-weight="bold">geburt</text>
               <line x1="0" y1="18" x2="54.765625" y2="18"/>
               <text font-size="12" fill="grey" x="3.6" y="30">type</text>
               <line x1="31.753125" y1="18" x2="31.753125" y2="36"/>
               <g transform="translate(54.765625,0)">
                  <g transform="translate(55,0)">
                     <rect width="174.078125" height="18" class="element-upper"/>
                     <rect width="174.078125" height="18" y="18" class="element-lower"/>
                     <text font-size="12" x="3.6" y="12" font-weight="bold">datum</text>
                     <line x1="0" y1="18" x2="174.078125" y2="18"/>
                     <text font-size="12" fill="grey" x="3.6" y="30">type</text>
                     <line x1="31.753125" y1="18" x2="31.753125" y2="36"/>
                     <text font-size="12" x="35.353125" y="30">xbd:TeilbekanntesDatum</text>
                     <g transform="translate(174.078125,0)"/>
                  </g>
                  <line x1="33"
                        y1="18"
                        x2="55"
                        y2="18"
                        class="type-structure-required"/>
                  <text font-size="11" fill="black" x="53" y="16" text-anchor="end"/>
                  <line x1="33"
                        y1="18"
                        x2="33"
                        y2="18"
                        class="type-structure-required"/>
                  <g transform="translate(55,48)">
                     <rect width="125.03125" height="18" class="element-upper"/>
                     <rect width="125.03125" height="18" y="18" class="element-lower"/>
                     <text font-size="12" x="3.6" y="12" font-weight="bold">geburtsort</text>
                     <line x1="0" y1="18" x2="125.03125" y2="18"/>
                     <text font-size="12" fill="grey" x="3.6" y="30">type</text>
                     <line x1="31.753125" y1="18" x2="31.753125" y2="36"/>
                     <text font-size="12" x="35.353125" y="30">xbd:Ortsangabe</text>
                     <g transform="translate(125.03125,0)"/>
                  </g>
                  <line x1="33"
                        y1="66"
                        x2="55"
                        y2="66"
                        class="type-structure-required"/>
                  <text font-size="11" fill="black" x="53" y="64" text-anchor="end"/>
                  <line x1="33"
                        y1="18"
                        x2="33"
                        y2="66"
                        class="type-structure-required"/>
                  <circle cx="15"
                          cy="18"
                          r="10"
                          stroke="black"
                          fill="rgb(251, 251, 251)"/>
                  <line x1="0"
                        y1="18"
                        x2="5"
                        y2="18"
                        class="type-structure-required"/>
                  <line x1="25"
                        y1="18"
                        x2="33"
                        y2="18"
                        class="type-structure-required"/>
                  <circle cx="10" cy="18" r="1.2" stroke="black" fill="black"/>
                  <circle cx="15" cy="18" r="1.2" stroke="black" fill="black"/>
                  <circle cx="20" cy="18" r="1.2" stroke="black" fill="black"/>
                  <line x1="7" y1="18" x2="23" y2="18"/>
               </g>
            </g>
            <line x1="33"
                  y1="114"
                  x2="55"
                  y2="114"
                  class="type-structure-required"/>
            <text font-size="11"
                  fill="black"
                  x="53"
                  y="112"
                  text-anchor="end"/>
            <line x1="33"
                  y1="18"
                  x2="33"
                  y2="114"
                  class="type-structure-required"/>
            <g transform="translate(55,192)">
               <rect width="113.9875" height="18" class="element-upper"/>
               <rect width="113.9875" height="18" y="18" class="element-lower"/>
               <text font-size="12" x="3.6" y="12" font-weight="bold">ersteinschreibung</text>
               <line x1="0" y1="18" x2="113.9875" y2="18"/>
               <text font-size="12" fill="grey" x="3.6" y="30">type</text>
               <line x1="31.753125" y1="18" x2="31.753125" y2="36"/>
               <text font-size="12" x="35.353125" y="30">xs:date</text>
               <g transform="translate(113.9875,0)"/>
            </g>
            <line x1="33"
                  y1="210"
                  x2="55"
                  y2="210"
                  class="type-structure-required"/>
            <text font-size="11"
                  fill="black"
                  x="53"
                  y="208"
                  text-anchor="end"/>
            <line x1="33"
                  y1="114"
                  x2="33"
                  y2="210"
                  class="type-structure-required"/>
            <circle cx="15"
                    cy="18"
                    r="10"
                    stroke="black"
                    fill="rgb(251, 251, 251)"/>
            <line x1="0"
                  y1="18"
                  x2="5"
                  y2="18"
                  class="type-structure-required"/>
            <line x1="25"
                  y1="18"
                  x2="33"
                  y2="18"
                  class="type-structure-required"/>
            <circle cx="10" cy="18" r="1.2" stroke="black" fill="black"/>
            <circle cx="15" cy="18" r="1.2" stroke="black" fill="black"/>
            <circle cx="20" cy="18" r="1.2" stroke="black" fill="black"/>
            <line x1="7" y1="18" x2="23" y2="18"/>
         </g>
      </g>
      <line x1="33"
            y1="66"
            x2="55"
            y2="66"
            class="type-structure-required"/>
      <text font-size="11" fill="black" x="53" y="64" text-anchor="end"/>
      <line x1="33"
            y1="18"
            x2="33"
            y2="66"
            class="type-structure-required"/>
      <g transform="translate(55,288)">
         <rect width="124.71875" height="18" class="element-upper"/>
         <rect width="124.71875" height="18" y="18" class="element-lower"/>
         <text font-size="12" x="3.6" y="12" font-weight="bold">studienfach</text>
         <line x1="0" y1="18" x2="124.71875" y2="18"/>
         <text font-size="12" fill="grey" x="3.6" y="30">type</text>
         <line x1="31.753125" y1="18" x2="31.753125" y2="36"/>
         <text font-size="12" x="35.353125" y="30">xhs:Studienfach</text>
         <g transform="translate(124.71875,0)"/>
      </g>
      <line x1="33"
            y1="306"
            x2="55"
            y2="306"
            class="type-structure-optional"/>
      <text font-size="11"
            fill="black"
            x="53"
            y="304"
            text-anchor="end">0..*</text>
      <line x1="33"
            y1="66"
            x2="33"
            y2="306"
            class="type-structure-required"/>
      <g transform="translate(55,336)">
         <rect width="89.45625" height="18" class="element-upper"/>
         <rect width="89.45625" height="18" y="18" class="element-lower"/>
         <text font-size="12" x="3.6" y="12" font-weight="bold">lernzeitmodell</text>
         <line x1="0" y1="18" x2="89.45625" y2="18"/>
         <text font-size="12" fill="grey" x="3.6" y="30">type</text>
         <line x1="31.753125" y1="18" x2="31.753125" y2="36"/>
         <g transform="translate(89.45625,0)">
            <g transform="translate(55,0)">
               <rect width="173.6875" height="18" class="element-upper"/>
               <rect width="173.6875" height="18" y="18" class="element-lower"/>
               <text font-size="12" x="3.6" y="12" font-weight="bold">code</text>
               <line x1="0" y1="18" x2="173.6875" y2="18"/>
               <text font-size="12" fill="grey" x="3.6" y="30">type</text>
               <line x1="31.753125" y1="18" x2="31.753125" y2="36"/>
               <text font-size="12" x="35.353125" y="30">xbd:Code.Lernzeitmodell</text>
               <g transform="translate(173.6875,0)"/>
            </g>
            <line x1="33"
                  y1="18"
                  x2="55"
                  y2="18"
                  class="type-structure-required"/>
            <text font-size="11" fill="black" x="53" y="16" text-anchor="end"/>
            <line x1="33"
                  y1="18"
                  x2="33"
                  y2="18"
                  class="type-structure-required"/>
            <g transform="translate(55,48)">
               <rect width="146.671875" height="18" class="element-upper"/>
               <rect width="146.671875" height="18" y="18" class="element-lower"/>
               <text font-size="12" x="3.6" y="12" font-weight="bold">nichtGelisteterWert</text>
               <line x1="0" y1="18" x2="146.671875" y2="18"/>
               <text font-size="12" fill="grey" x="3.6" y="30">type</text>
               <line x1="31.753125" y1="18" x2="31.753125" y2="36"/>
               <text font-size="12" x="35.353125" y="30">xbd:String.Localized</text>
               <g transform="translate(146.671875,0)"/>
            </g>
            <line x1="33"
                  y1="66"
                  x2="55"
                  y2="66"
                  class="type-structure-optional"/>
            <text font-size="11" fill="black" x="53" y="64" text-anchor="end">0..1</text>
            <line x1="33"
                  y1="18"
                  x2="33"
                  y2="66"
                  class="type-structure-optional"/>
            <circle cx="15"
                    cy="18"
                    r="10"
                    stroke="black"
                    fill="rgb(251, 251, 251)"/>
            <line x1="0"
                  y1="18"
                  x2="5"
                  y2="18"
                  class="type-structure-required"/>
            <line x1="25"
                  y1="18"
                  x2="33"
                  y2="18"
                  class="type-structure-required"/>
            <circle cx="10" cy="18" r="1.2" stroke="black" fill="black"/>
            <circle cx="15" cy="18" r="1.2" stroke="black" fill="black"/>
            <circle cx="20" cy="18" r="1.2" stroke="black" fill="black"/>
            <line x1="7" y1="18" x2="23" y2="18"/>
         </g>
      </g>
      <line x1="33"
            y1="354"
            x2="55"
            y2="354"
            class="type-structure-required"/>
      <text font-size="11"
            fill="black"
            x="53"
            y="352"
            text-anchor="end"/>
      <line x1="33"
            y1="306"
            x2="33"
            y2="354"
            class="type-structure-required"/>
      <g transform="translate(55,432)">
         <rect width="148.078125" height="18" class="element-upper"/>
         <rect width="148.078125" height="18" y="18" class="element-lower"/>
         <text font-size="12" x="3.6" y="12" font-weight="bold">studienzeitraum</text>
         <line x1="0" y1="18" x2="148.078125" y2="18"/>
         <text font-size="12" fill="grey" x="3.6" y="30">type</text>
         <line x1="31.753125" y1="18" x2="31.753125" y2="36"/>
         <text font-size="12" x="35.353125" y="30">xhs:Studienzeitraum</text>
         <g transform="translate(148.078125,0)"/>
      </g>
      <line x1="33"
            y1="450"
            x2="55"
            y2="450"
            class="type-structure-required"/>
      <text font-size="11"
            fill="black"
            x="53"
            y="448"
            text-anchor="end"/>
      <line x1="33"
            y1="354"
            x2="33"
            y2="450"
            class="type-structure-required"/>
      <g transform="translate(55,480)">
         <rect width="141.03437499999998" height="18" class="element-upper"/>
         <rect width="141.03437499999998"
               height="18"
               y="18"
               class="element-lower"/>
         <text font-size="12" x="3.6" y="12" font-weight="bold">immatrikulationsstatus</text>
         <line x1="0" y1="18" x2="141.03437499999998" y2="18"/>
         <text font-size="12" fill="grey" x="3.6" y="30">type</text>
         <line x1="31.753125" y1="18" x2="31.753125" y2="36"/>
         <g transform="translate(141.03437499999998,0)">
            <g transform="translate(55,0)">
               <rect width="218.390625" height="18" class="element-upper"/>
               <rect width="218.390625" height="18" y="18" class="element-lower"/>
               <text font-size="12" x="3.6" y="12" font-weight="bold">code</text>
               <line x1="0" y1="18" x2="218.390625" y2="18"/>
               <text font-size="12" fill="grey" x="3.6" y="30">type</text>
               <line x1="31.753125" y1="18" x2="31.753125" y2="36"/>
               <text font-size="12" x="35.353125" y="30">xhs:Code.Immatrikulationsstatus</text>
               <g transform="translate(218.390625,0)"/>
            </g>
            <line x1="33"
                  y1="18"
                  x2="55"
                  y2="18"
                  class="type-structure-required"/>
            <text font-size="11" fill="black" x="53" y="16" text-anchor="end"/>
            <line x1="33"
                  y1="18"
                  x2="33"
                  y2="18"
                  class="type-structure-required"/>
            <g transform="translate(55,48)">
               <rect width="146.671875" height="18" class="element-upper"/>
               <rect width="146.671875" height="18" y="18" class="element-lower"/>
               <text font-size="12" x="3.6" y="12" font-weight="bold">nichtGelisteterWert</text>
               <line x1="0" y1="18" x2="146.671875" y2="18"/>
               <text font-size="12" fill="grey" x="3.6" y="30">type</text>
               <line x1="31.753125" y1="18" x2="31.753125" y2="36"/>
               <text font-size="12" x="35.353125" y="30">xbd:String.Localized</text>
               <g transform="translate(146.671875,0)"/>
            </g>
            <line x1="33"
                  y1="66"
                  x2="55"
                  y2="66"
                  class="type-structure-optional"/>
            <text font-size="11" fill="black" x="53" y="64" text-anchor="end">0..1</text>
            <line x1="33"
                  y1="18"
                  x2="33"
                  y2="66"
                  class="type-structure-optional"/>
            <circle cx="15"
                    cy="18"
                    r="10"
                    stroke="black"
                    fill="rgb(251, 251, 251)"/>
            <line x1="0"
                  y1="18"
                  x2="5"
                  y2="18"
                  class="type-structure-required"/>
            <line x1="25"
                  y1="18"
                  x2="33"
                  y2="18"
                  class="type-structure-required"/>
            <circle cx="10" cy="18" r="1.2" stroke="black" fill="black"/>
            <circle cx="15" cy="18" r="1.2" stroke="black" fill="black"/>
            <circle cx="20" cy="18" r="1.2" stroke="black" fill="black"/>
            <line x1="7" y1="18" x2="23" y2="18"/>
         </g>
      </g>
      <line x1="33"
            y1="498"
            x2="55"
            y2="498"
            class="type-structure-required"/>
      <text font-size="11"
            fill="black"
            x="53"
            y="496"
            text-anchor="end"/>
      <line x1="33"
            y1="450"
            x2="33"
            y2="498"
            class="type-structure-required"/>
      <g transform="translate(55,576)">
         <rect width="123.096875" height="18" class="element-upper"/>
         <rect width="123.096875" height="18" y="18" class="element-lower"/>
         <text font-size="12" x="3.6" y="12" font-weight="bold">beurlaubungsstatus</text>
         <line x1="0" y1="18" x2="123.096875" y2="18"/>
         <text font-size="12" fill="grey" x="3.6" y="30">type</text>
         <line x1="31.753125" y1="18" x2="31.753125" y2="36"/>
         <g transform="translate(123.096875,0)">
            <g transform="translate(55,0)">
               <rect width="204.390625" height="18" class="element-upper"/>
               <rect width="204.390625" height="18" y="18" class="element-lower"/>
               <text font-size="12" x="3.6" y="12" font-weight="bold">code</text>
               <line x1="0" y1="18" x2="204.390625" y2="18"/>
               <text font-size="12" fill="grey" x="3.6" y="30">type</text>
               <line x1="31.753125" y1="18" x2="31.753125" y2="36"/>
               <text font-size="12" x="35.353125" y="30">xhs:Code.Beurlaubungsstatus</text>
               <g transform="translate(204.390625,0)"/>
            </g>
            <line x1="33"
                  y1="18"
                  x2="55"
                  y2="18"
                  class="type-structure-required"/>
            <text font-size="11" fill="black" x="53" y="16" text-anchor="end"/>
            <line x1="33"
                  y1="18"
                  x2="33"
                  y2="18"
                  class="type-structure-required"/>
            <g transform="translate(55,48)">
               <rect width="146.671875" height="18" class="element-upper"/>
               <rect width="146.671875" height="18" y="18" class="element-lower"/>
               <text font-size="12" x="3.6" y="12" font-weight="bold">nichtGelisteterWert</text>
               <line x1="0" y1="18" x2="146.671875" y2="18"/>
               <text font-size="12" fill="grey" x="3.6" y="30">type</text>
               <line x1="31.753125" y1="18" x2="31.753125" y2="36"/>
               <text font-size="12" x="35.353125" y="30">xbd:String.Localized</text>
               <g transform="translate(146.671875,0)"/>
            </g>
            <line x1="33"
                  y1="66"
                  x2="55"
                  y2="66"
                  class="type-structure-optional"/>
            <text font-size="11" fill="black" x="53" y="64" text-anchor="end">0..1</text>
            <line x1="33"
                  y1="18"
                  x2="33"
                  y2="66"
                  class="type-structure-optional"/>
            <circle cx="15"
                    cy="18"
                    r="10"
                    stroke="black"
                    fill="rgb(251, 251, 251)"/>
            <line x1="0"
                  y1="18"
                  x2="5"
                  y2="18"
                  class="type-structure-required"/>
            <line x1="25"
                  y1="18"
                  x2="33"
                  y2="18"
                  class="type-structure-required"/>
            <circle cx="10" cy="18" r="1.2" stroke="black" fill="black"/>
            <circle cx="15" cy="18" r="1.2" stroke="black" fill="black"/>
            <circle cx="20" cy="18" r="1.2" stroke="black" fill="black"/>
            <line x1="7" y1="18" x2="23" y2="18"/>
         </g>
      </g>
      <line x1="33"
            y1="594"
            x2="55"
            y2="594"
            class="type-structure-required"/>
      <text font-size="11"
            fill="black"
            x="53"
            y="592"
            text-anchor="end"/>
      <line x1="33"
            y1="498"
            x2="33"
            y2="594"
            class="type-structure-required"/>
      <g transform="translate(55,672)">
         <rect width="119.703125" height="18" class="element-upper"/>
         <rect width="119.703125" height="18" y="18" class="element-lower"/>
         <text font-size="12" x="3.6" y="12" font-weight="bold">verifikation</text>
         <line x1="0" y1="18" x2="119.703125" y2="18"/>
         <text font-size="12" fill="grey" x="3.6" y="30">type</text>
         <line x1="31.753125" y1="18" x2="31.753125" y2="36"/>
         <text font-size="12" x="35.353125" y="30">xhs:Verifikation</text>
         <g transform="translate(119.703125,0)"/>
      </g>
      <line x1="33"
            y1="690"
            x2="55"
            y2="690"
            class="type-structure-optional"/>
      <text font-size="11"
            fill="black"
            x="53"
            y="688"
            text-anchor="end">0..2</text>
      <line x1="33"
            y1="594"
            x2="33"
            y2="690"
            class="type-structure-optional"/>
      <g transform="translate(55,720)">
         <rect width="137.78125" height="18" class="element-upper"/>
         <rect width="137.78125" height="18" y="18" class="element-lower"/>
         <text font-size="12" x="3.6" y="12" font-weight="bold">ds:Signature (ref)</text>
         <line x1="0" y1="18" x2="137.78125" y2="18"/>
         <text font-size="12" fill="grey" x="3.6" y="30">type</text>
         <line x1="31.753125" y1="18" x2="31.753125" y2="36"/>
         <text font-size="12" x="35.353125" y="30">(see element def.)</text>
         <g transform="translate(137.78125,0)"/>
      </g>
      <line x1="33"
            y1="738"
            x2="55"
            y2="738"
            class="type-structure-optional"/>
      <text font-size="11"
            fill="black"
            x="53"
            y="736"
            text-anchor="end">0..1</text>
      <line x1="33"
            y1="690"
            x2="33"
            y2="738"
            class="type-structure-optional"/>
      <circle cx="15"
              cy="18"
              r="10"
              stroke="black"
              fill="rgb(251, 251, 251)"/>
      <line x1="0"
            y1="18"
            x2="5"
            y2="18"
            class="type-structure-required"/>
      <line x1="25"
            y1="18"
            x2="33"
            y2="18"
            class="type-structure-required"/>
      <circle cx="10" cy="18" r="1.2" stroke="black" fill="black"/>
      <circle cx="15" cy="18" r="1.2" stroke="black" fill="black"/>
      <circle cx="20" cy="18" r="1.2" stroke="black" fill="black"/>
      <line x1="7" y1="18" x2="23" y2="18"/>
   </g>
</svg>
