<?xml version="1.0" encoding="UTF-8"?>
<svg xmlns="http://www.w3.org/2000/svg" width="449.034375" height="442">
   <defs>
      <style type="text/css">
                        text {
                            font-family: 'Arial';
                            fill: black;
                        }
                        text.at {
                            font-family: 'Arial';
                            fill: rgb(242, 152, 0);
                        }
                        line {
                            stroke: black;
                        }
                        line.type-structure {
                            stroke: black;
                        }
                        line.type-structure-optional {
                            stroke: black;
                            stroke-dasharray: 4, 4;
                        }
                        rect.attribute-upper {
                            stroke: black;
                            fill: rgb(255, 239, 211);
                        }
                        rect.element-upper {
                            stroke: black;
                            fill: rgb(215, 227, 249);
                        }
                        rect.element-lower {
                            stroke: black;
                            fill: rgb(236, 242, 252);
                        }
                        a text {
                            fill: black;
                        } 
                    </style>
   </defs>
   <rect width="439.034375"
         height="432"
         stroke-dasharray="3,3"
         rx="1"
         ry="1"
         style="stroke: grey;fill: white;"/>
   <text font-size="14" x="3.6" y="18" font-weight="bold">element rentenbescheinigung (anonymous type)</text>
   <text font-size="12" x="3.6" y="34.8"> (extension of xbd:Dokument)</text>
   <g transform="translate(10,46)">
      <g transform="translate(55,0)">
         <rect width="176.83124999999998" height="18" class="element-upper"/>
         <rect width="176.83124999999998"
               height="18"
               y="18"
               class="element-lower"/>
         <text font-size="12" x="3.6" y="12" font-weight="bold">rentenversicherungsnummer</text>
         <line x1="0" y1="18" x2="176.83124999999998" y2="18"/>
         <text font-size="12" fill="grey" x="3.6" y="30">type</text>
         <line x1="31.753125" y1="18" x2="31.753125" y2="36"/>
         <text font-size="12" x="35.353125" y="30">xhs:Identifikation</text>
         <g transform="translate(176.83124999999998,0)"/>
      </g>
      <line x1="33"
            y1="18"
            x2="55"
            y2="18"
            class="type-structure-optional"/>
      <text font-size="11" fill="black" x="53" y="16" text-anchor="end">0..1</text>
      <line x1="33"
            y1="18"
            x2="33"
            y2="18"
            class="type-structure-required"/>
      <g transform="translate(55,48)">
         <rect width="132.015625" height="18" class="element-upper"/>
         <rect width="132.015625" height="18" y="18" class="element-lower"/>
         <text font-size="12" x="3.6" y="12" font-weight="bold">studierender</text>
         <line x1="0" y1="18" x2="132.015625" y2="18"/>
         <text font-size="12" fill="grey" x="3.6" y="30">type</text>
         <line x1="31.753125" y1="18" x2="31.753125" y2="36"/>
         <text font-size="12" x="35.353125" y="30">xhs:Studierender</text>
         <g transform="translate(132.015625,0)"/>
      </g>
      <line x1="33"
            y1="66"
            x2="55"
            y2="66"
            class="type-structure-required"/>
      <text font-size="11" fill="black" x="53" y="64" text-anchor="end"/>
      <line x1="33"
            y1="18"
            x2="33"
            y2="66"
            class="type-structure-required"/>
      <g transform="translate(55,96)">
         <rect width="149.56562499999998" height="18" class="element-upper"/>
         <rect width="149.56562499999998"
               height="18"
               y="18"
               class="element-lower"/>
         <text font-size="12" x="3.6" y="12" font-weight="bold">ausstellendeHochschule</text>
         <line x1="0" y1="18" x2="149.56562499999998" y2="18"/>
         <text font-size="12" fill="grey" x="3.6" y="30">type</text>
         <line x1="31.753125" y1="18" x2="31.753125" y2="36"/>
         <text font-size="12" x="35.353125" y="30">xhs:Hochschule</text>
         <g transform="translate(149.56562499999998,0)"/>
      </g>
      <line x1="33"
            y1="114"
            x2="55"
            y2="114"
            class="type-structure-required"/>
      <text font-size="11"
            fill="black"
            x="53"
            y="112"
            text-anchor="end"/>
      <line x1="33"
            y1="66"
            x2="33"
            y2="114"
            class="type-structure-required"/>
      <g transform="translate(55,144)">
         <rect width="105.3625" height="18" class="element-upper"/>
         <rect width="105.3625" height="18" y="18" class="element-lower"/>
         <text font-size="12" x="3.6" y="12" font-weight="bold">studienabschnitt</text>
         <line x1="0" y1="18" x2="105.3625" y2="18"/>
         <text font-size="12" fill="grey" x="3.6" y="30">type</text>
         <line x1="31.753125" y1="18" x2="31.753125" y2="36"/>
         <g transform="translate(105.3625,0)">
            <g transform="translate(55,0)">
               <rect width="202.671875" height="18" class="element-upper"/>
               <rect width="202.671875" height="18" y="18" class="element-lower"/>
               <text font-size="12" x="3.6" y="12" font-weight="bold">beurlaubungsgrund</text>
               <line x1="0" y1="18" x2="202.671875" y2="18"/>
               <text font-size="12" fill="grey" x="3.6" y="30">type</text>
               <line x1="31.753125" y1="18" x2="31.753125" y2="36"/>
               <text font-size="12" x="35.353125" y="30">xhs:Code.Beurlaubungsgrund</text>
               <g transform="translate(202.671875,0)"/>
            </g>
            <line x1="33"
                  y1="18"
                  x2="55"
                  y2="18"
                  class="type-structure-optional"/>
            <text font-size="11" fill="black" x="53" y="16" text-anchor="end">0..1</text>
            <line x1="33"
                  y1="18"
                  x2="33"
                  y2="18"
                  class="type-structure-required"/>
            <g transform="translate(55,48)">
               <rect width="126.03125" height="18" class="element-upper"/>
               <rect width="126.03125" height="18" y="18" class="element-lower"/>
               <text font-size="12" x="3.6" y="12" font-weight="bold">ausbildungsstaette</text>
               <line x1="0" y1="18" x2="126.03125" y2="18"/>
               <text font-size="12" fill="grey" x="3.6" y="30">type</text>
               <line x1="31.753125" y1="18" x2="31.753125" y2="36"/>
               <text font-size="12" x="35.353125" y="30">xhs:Hochschule</text>
               <g transform="translate(126.03125,0)"/>
            </g>
            <line x1="33"
                  y1="66"
                  x2="55"
                  y2="66"
                  class="type-structure-required"/>
            <text font-size="11" fill="black" x="53" y="64" text-anchor="end"/>
            <line x1="33"
                  y1="18"
                  x2="33"
                  y2="66"
                  class="type-structure-required"/>
            <g transform="translate(55,96)">
               <rect width="105.58125" height="18" class="element-upper"/>
               <rect width="105.58125" height="18" y="18" class="element-lower"/>
               <text font-size="12" x="3.6" y="12" font-weight="bold">vorzeitigBeendet</text>
               <line x1="0" y1="18" x2="105.58125" y2="18"/>
               <text font-size="12" fill="grey" x="3.6" y="30">type</text>
               <line x1="31.753125" y1="18" x2="31.753125" y2="36"/>
               <text font-size="12" x="35.353125" y="30">xs:date</text>
               <g transform="translate(105.58125,0)"/>
            </g>
            <line x1="33"
                  y1="114"
                  x2="55"
                  y2="114"
                  class="type-structure-optional"/>
            <text font-size="11"
                  fill="black"
                  x="53"
                  y="112"
                  text-anchor="end">0..1</text>
            <line x1="33"
                  y1="66"
                  x2="33"
                  y2="114"
                  class="type-structure-optional"/>
            <circle cx="15"
                    cy="18"
                    r="10"
                    stroke="black"
                    fill="rgb(251, 251, 251)"/>
            <line x1="0"
                  y1="18"
                  x2="5"
                  y2="18"
                  class="type-structure-required"/>
            <line x1="25"
                  y1="18"
                  x2="33"
                  y2="18"
                  class="type-structure-required"/>
            <circle cx="10" cy="18" r="1.2" stroke="black" fill="black"/>
            <circle cx="15" cy="18" r="1.2" stroke="black" fill="black"/>
            <circle cx="20" cy="18" r="1.2" stroke="black" fill="black"/>
            <line x1="7" y1="18" x2="23" y2="18"/>
         </g>
      </g>
      <line x1="33"
            y1="162"
            x2="55"
            y2="162"
            class="type-structure-required"/>
      <text font-size="11"
            fill="black"
            x="53"
            y="160"
            text-anchor="end">1..*</text>
      <line x1="33"
            y1="114"
            x2="33"
            y2="162"
            class="type-structure-required"/>
      <g transform="translate(55,288)">
         <rect width="119.703125" height="18" class="element-upper"/>
         <rect width="119.703125" height="18" y="18" class="element-lower"/>
         <text font-size="12" x="3.6" y="12" font-weight="bold">verifikation</text>
         <line x1="0" y1="18" x2="119.703125" y2="18"/>
         <text font-size="12" fill="grey" x="3.6" y="30">type</text>
         <line x1="31.753125" y1="18" x2="31.753125" y2="36"/>
         <text font-size="12" x="35.353125" y="30">xhs:Verifikation</text>
         <g transform="translate(119.703125,0)"/>
      </g>
      <line x1="33"
            y1="306"
            x2="55"
            y2="306"
            class="type-structure-optional"/>
      <text font-size="11"
            fill="black"
            x="53"
            y="304"
            text-anchor="end">0..2</text>
      <line x1="33"
            y1="162"
            x2="33"
            y2="306"
            class="type-structure-optional"/>
      <g transform="translate(55,336)">
         <rect width="137.78125" height="18" class="element-upper"/>
         <rect width="137.78125" height="18" y="18" class="element-lower"/>
         <text font-size="12" x="3.6" y="12" font-weight="bold">ds:Signature (ref)</text>
         <line x1="0" y1="18" x2="137.78125" y2="18"/>
         <text font-size="12" fill="grey" x="3.6" y="30">type</text>
         <line x1="31.753125" y1="18" x2="31.753125" y2="36"/>
         <text font-size="12" x="35.353125" y="30">(see element def.)</text>
         <g transform="translate(137.78125,0)"/>
      </g>
      <line x1="33"
            y1="354"
            x2="55"
            y2="354"
            class="type-structure-optional"/>
      <text font-size="11"
            fill="black"
            x="53"
            y="352"
            text-anchor="end">0..1</text>
      <line x1="33"
            y1="306"
            x2="33"
            y2="354"
            class="type-structure-optional"/>
      <circle cx="15"
              cy="18"
              r="10"
              stroke="black"
              fill="rgb(251, 251, 251)"/>
      <line x1="0"
            y1="18"
            x2="5"
            y2="18"
            class="type-structure-required"/>
      <line x1="25"
            y1="18"
            x2="33"
            y2="18"
            class="type-structure-required"/>
      <circle cx="10" cy="18" r="1.2" stroke="black" fill="black"/>
      <circle cx="15" cy="18" r="1.2" stroke="black" fill="black"/>
      <circle cx="20" cy="18" r="1.2" stroke="black" fill="black"/>
      <line x1="7" y1="18" x2="23" y2="18"/>
   </g>
</svg>
