<?xml version="1.0" encoding="UTF-8"?>
<svg xmlns="http://www.w3.org/2000/svg"
     width="699.8031249999999"
     height="730">
   <defs>
      <style type="text/css">
                        text {
                            font-family: 'Arial';
                            fill: black;
                        }
                        text.at {
                            font-family: 'Arial';
                            fill: rgb(242, 152, 0);
                        }
                        line {
                            stroke: black;
                        }
                        line.type-structure {
                            stroke: black;
                        }
                        line.type-structure-optional {
                            stroke: black;
                            stroke-dasharray: 4, 4;
                        }
                        rect.attribute-upper {
                            stroke: black;
                            fill: rgb(255, 239, 211);
                        }
                        rect.element-upper {
                            stroke: black;
                            fill: rgb(215, 227, 249);
                        }
                        rect.element-lower {
                            stroke: black;
                            fill: rgb(236, 242, 252);
                        }
                        a text {
                            fill: black;
                        } 
                    </style>
   </defs>
   <rect width="689.8031249999999"
         height="720"
         stroke-dasharray="3,3"
         rx="1"
         ry="1"
         style="stroke: grey;fill: white;"/>
   <text font-size="14" x="3.6" y="18" font-weight="bold">element hochschulabschlusszeugnis (anonymous type)</text>
   <text font-size="12" x="3.6" y="34.8"> (extension of xbd:Dokument)</text>
   <g transform="translate(10,46)">
      <g transform="translate(55,0)">
         <rect width="147.734375" height="18" class="element-upper"/>
         <rect width="147.734375" height="18" y="18" class="element-lower"/>
         <text font-size="12" x="3.6" y="12" font-weight="bold">abschluss</text>
         <line x1="0" y1="18" x2="147.734375" y2="18"/>
         <text font-size="12" fill="grey" x="3.6" y="30">type</text>
         <line x1="31.753125" y1="18" x2="31.753125" y2="36"/>
         <text font-size="12" x="35.353125" y="30">din91379:datatypeC</text>
         <g transform="translate(147.734375,0)"/>
      </g>
      <line x1="33"
            y1="18"
            x2="55"
            y2="18"
            class="type-structure-optional"/>
      <text font-size="11" fill="black" x="53" y="16" text-anchor="end">0..1</text>
      <line x1="33"
            y1="18"
            x2="33"
            y2="18"
            class="type-structure-required"/>
      <g transform="translate(55,48)">
         <rect width="132.015625" height="18" class="element-upper"/>
         <rect width="132.015625" height="18" y="18" class="element-lower"/>
         <text font-size="12" x="3.6" y="12" font-weight="bold">studierender</text>
         <line x1="0" y1="18" x2="132.015625" y2="18"/>
         <text font-size="12" fill="grey" x="3.6" y="30">type</text>
         <line x1="31.753125" y1="18" x2="31.753125" y2="36"/>
         <text font-size="12" x="35.353125" y="30">xhs:Studierender</text>
         <g transform="translate(132.015625,0)"/>
      </g>
      <line x1="33"
            y1="66"
            x2="55"
            y2="66"
            class="type-structure-required"/>
      <text font-size="11" fill="black" x="53" y="64" text-anchor="end"/>
      <line x1="33"
            y1="18"
            x2="33"
            y2="66"
            class="type-structure-required"/>
      <g transform="translate(55,96)">
         <rect width="149.56562499999998" height="18" class="element-upper"/>
         <rect width="149.56562499999998"
               height="18"
               y="18"
               class="element-lower"/>
         <text font-size="12" x="3.6" y="12" font-weight="bold">ausstellendeHochschule</text>
         <line x1="0" y1="18" x2="149.56562499999998" y2="18"/>
         <text font-size="12" fill="grey" x="3.6" y="30">type</text>
         <line x1="31.753125" y1="18" x2="31.753125" y2="36"/>
         <text font-size="12" x="35.353125" y="30">xhs:Hochschule</text>
         <g transform="translate(149.56562499999998,0)"/>
      </g>
      <line x1="33"
            y1="114"
            x2="55"
            y2="114"
            class="type-structure-required"/>
      <text font-size="11"
            fill="black"
            x="53"
            y="112"
            text-anchor="end"/>
      <line x1="33"
            y1="66"
            x2="33"
            y2="114"
            class="type-structure-required"/>
      <g transform="translate(55,144)">
         <rect width="115.39375" height="18" class="element-upper"/>
         <rect width="115.39375" height="18" y="18" class="element-lower"/>
         <text font-size="12" x="3.6" y="12" font-weight="bold">datumDesErwerbs</text>
         <line x1="0" y1="18" x2="115.39375" y2="18"/>
         <text font-size="12" fill="grey" x="3.6" y="30">type</text>
         <line x1="31.753125" y1="18" x2="31.753125" y2="36"/>
         <text font-size="12" x="35.353125" y="30">xs:date</text>
         <g transform="translate(115.39375,0)"/>
      </g>
      <line x1="33"
            y1="162"
            x2="55"
            y2="162"
            class="type-structure-optional"/>
      <text font-size="11"
            fill="black"
            x="53"
            y="160"
            text-anchor="end">0..1</text>
      <line x1="33"
            y1="114"
            x2="33"
            y2="162"
            class="type-structure-required"/>
      <g transform="translate(55,192)">
         <rect width="107.734375" height="18" class="element-upper"/>
         <rect width="107.734375" height="18" y="18" class="element-lower"/>
         <text font-size="12" x="3.6" y="12" font-weight="bold">leistung</text>
         <line x1="0" y1="18" x2="107.734375" y2="18"/>
         <text font-size="12" fill="grey" x="3.6" y="30">type</text>
         <line x1="31.753125" y1="18" x2="31.753125" y2="36"/>
         <text font-size="12" x="35.353125" y="30">xhs:Leistung</text>
         <g transform="translate(107.734375,0)"/>
      </g>
      <line x1="33"
            y1="210"
            x2="55"
            y2="210"
            class="type-structure-required"/>
      <text font-size="11"
            fill="black"
            x="53"
            y="208"
            text-anchor="end">1..*</text>
      <line x1="33"
            y1="162"
            x2="33"
            y2="210"
            class="type-structure-required"/>
      <g transform="translate(55,240)">
         <rect width="62.565625000000004" height="18" class="element-upper"/>
         <rect width="62.565625000000004"
               height="18"
               y="18"
               class="element-lower"/>
         <text font-size="12" x="3.6" y="12" font-weight="bold">benotung</text>
         <line x1="0" y1="18" x2="62.565625000000004" y2="18"/>
         <text font-size="12" fill="grey" x="3.6" y="30">type</text>
         <line x1="31.753125" y1="18" x2="31.753125" y2="36"/>
         <g transform="translate(62.565625000000004,0)">
            <g transform="translate(55,0)">
               <rect width="112.734375" height="18" class="element-upper"/>
               <rect width="112.734375" height="18" y="18" class="element-lower"/>
               <text font-size="12" x="3.6" y="12" font-weight="bold">gesamtnote</text>
               <line x1="0" y1="18" x2="112.734375" y2="18"/>
               <text font-size="12" fill="grey" x="3.6" y="30">type</text>
               <line x1="31.753125" y1="18" x2="31.753125" y2="36"/>
               <text font-size="12" x="35.353125" y="30">xbd:Benotung</text>
               <g transform="translate(112.734375,0)"/>
            </g>
            <line x1="33"
                  y1="18"
                  x2="55"
                  y2="18"
                  class="type-structure-required"/>
            <text font-size="11" fill="black" x="53" y="16" text-anchor="end"/>
            <line x1="33"
                  y1="18"
                  x2="33"
                  y2="18"
                  class="type-structure-required"/>
            <g transform="translate(55,48)">
               <rect width="176.50312499999998" height="18" class="element-upper"/>
               <rect width="176.50312499999998"
                     height="18"
                     y="18"
                     class="element-lower"/>
               <text font-size="12" x="3.6" y="12" font-weight="bold">lateinischeEhrenbezeichnung</text>
               <line x1="0" y1="18" x2="176.50312499999998" y2="18"/>
               <text font-size="12" fill="grey" x="3.6" y="30">type</text>
               <line x1="31.753125" y1="18" x2="31.753125" y2="36"/>
               <g transform="translate(176.50312499999998,0)">
                  <g transform="translate(55,0)">
                     <rect width="259.734375" height="18" class="element-upper"/>
                     <rect width="259.734375" height="18" y="18" class="element-lower"/>
                     <text font-size="12" x="3.6" y="12" font-weight="bold">code</text>
                     <line x1="0" y1="18" x2="259.734375" y2="18"/>
                     <text font-size="12" fill="grey" x="3.6" y="30">type</text>
                     <line x1="31.753125" y1="18" x2="31.753125" y2="36"/>
                     <text font-size="12" x="35.353125" y="30">xhs:Code.LateinischeEhrenbezeichnung</text>
                     <g transform="translate(259.734375,0)"/>
                  </g>
                  <line x1="33"
                        y1="18"
                        x2="55"
                        y2="18"
                        class="type-structure-required"/>
                  <text font-size="11" fill="black" x="53" y="16" text-anchor="end"/>
                  <line x1="33"
                        y1="18"
                        x2="33"
                        y2="18"
                        class="type-structure-required"/>
                  <g transform="translate(55,48)">
                     <rect width="146.671875" height="18" class="element-upper"/>
                     <rect width="146.671875" height="18" y="18" class="element-lower"/>
                     <text font-size="12" x="3.6" y="12" font-weight="bold">nichtGelisteterWert</text>
                     <line x1="0" y1="18" x2="146.671875" y2="18"/>
                     <text font-size="12" fill="grey" x="3.6" y="30">type</text>
                     <line x1="31.753125" y1="18" x2="31.753125" y2="36"/>
                     <text font-size="12" x="35.353125" y="30">xbd:String.Localized</text>
                     <g transform="translate(146.671875,0)"/>
                  </g>
                  <line x1="33"
                        y1="66"
                        x2="55"
                        y2="66"
                        class="type-structure-optional"/>
                  <text font-size="11" fill="black" x="53" y="64" text-anchor="end">0..1</text>
                  <line x1="33"
                        y1="18"
                        x2="33"
                        y2="66"
                        class="type-structure-optional"/>
                  <circle cx="15"
                          cy="18"
                          r="10"
                          stroke="black"
                          fill="rgb(251, 251, 251)"/>
                  <line x1="0"
                        y1="18"
                        x2="5"
                        y2="18"
                        class="type-structure-required"/>
                  <line x1="25"
                        y1="18"
                        x2="33"
                        y2="18"
                        class="type-structure-required"/>
                  <circle cx="10" cy="18" r="1.2" stroke="black" fill="black"/>
                  <circle cx="15" cy="18" r="1.2" stroke="black" fill="black"/>
                  <circle cx="20" cy="18" r="1.2" stroke="black" fill="black"/>
                  <line x1="7" y1="18" x2="23" y2="18"/>
               </g>
            </g>
            <line x1="33"
                  y1="66"
                  x2="55"
                  y2="66"
                  class="type-structure-optional"/>
            <text font-size="11" fill="black" x="53" y="64" text-anchor="end">0..1</text>
            <line x1="33"
                  y1="18"
                  x2="33"
                  y2="66"
                  class="type-structure-optional"/>
            <circle cx="15"
                    cy="18"
                    r="10"
                    stroke="black"
                    fill="rgb(251, 251, 251)"/>
            <line x1="0"
                  y1="18"
                  x2="5"
                  y2="18"
                  class="type-structure-required"/>
            <line x1="25"
                  y1="18"
                  x2="33"
                  y2="18"
                  class="type-structure-required"/>
            <circle cx="10" cy="18" r="1.2" stroke="black" fill="black"/>
            <circle cx="15" cy="18" r="1.2" stroke="black" fill="black"/>
            <circle cx="20" cy="18" r="1.2" stroke="black" fill="black"/>
            <line x1="7" y1="18" x2="23" y2="18"/>
         </g>
      </g>
      <line x1="33"
            y1="258"
            x2="55"
            y2="258"
            class="type-structure-required"/>
      <text font-size="11"
            fill="black"
            x="53"
            y="256"
            text-anchor="end"/>
      <line x1="33"
            y1="210"
            x2="33"
            y2="258"
            class="type-structure-required"/>
      <g transform="translate(55,384)">
         <rect width="284.159375" height="18" class="element-upper"/>
         <rect width="284.159375" height="18" y="18" class="element-lower"/>
         <text font-size="12" x="3.6" y="12" font-weight="bold">zulassungZuReglementiertemBerufBezeichnung</text>
         <line x1="0" y1="18" x2="284.159375" y2="18"/>
         <text font-size="12" fill="grey" x="3.6" y="30">type</text>
         <line x1="31.753125" y1="18" x2="31.753125" y2="36"/>
         <text font-size="12" x="35.353125" y="30">xbd:String.Localized</text>
         <g transform="translate(284.159375,0)"/>
      </g>
      <line x1="33"
            y1="402"
            x2="55"
            y2="402"
            class="type-structure-optional"/>
      <text font-size="11"
            fill="black"
            x="53"
            y="400"
            text-anchor="end">0..*</text>
      <line x1="33"
            y1="258"
            x2="33"
            y2="402"
            class="type-structure-optional"/>
      <g transform="translate(55,432)">
         <rect width="356.159375" height="18" class="element-upper"/>
         <rect width="356.159375" height="18" y="18" class="element-lower"/>
         <text font-size="12" x="3.6" y="12" font-weight="bold">zugangsberechtigungWeiterfuehrendesStudiumBezeichnung</text>
         <line x1="0" y1="18" x2="356.159375" y2="18"/>
         <text font-size="12" fill="grey" x="3.6" y="30">type</text>
         <line x1="31.753125" y1="18" x2="31.753125" y2="36"/>
         <text font-size="12" x="35.353125" y="30">xbd:String.Localized</text>
         <g transform="translate(356.159375,0)"/>
      </g>
      <line x1="33"
            y1="450"
            x2="55"
            y2="450"
            class="type-structure-optional"/>
      <text font-size="11"
            fill="black"
            x="53"
            y="448"
            text-anchor="end">0..*</text>
      <line x1="33"
            y1="402"
            x2="33"
            y2="450"
            class="type-structure-optional"/>
      <g transform="translate(55,480)">
         <rect width="335.378125" height="18" class="element-upper"/>
         <rect width="335.378125" height="18" y="18" class="element-lower"/>
         <text font-size="12" x="3.6" y="12" font-weight="bold">zugangsberechtigungWeiterfuehrendesStudiumCodeEQF</text>
         <line x1="0" y1="18" x2="335.378125" y2="18"/>
         <text font-size="12" fill="grey" x="3.6" y="30">type</text>
         <line x1="31.753125" y1="18" x2="31.753125" y2="36"/>
         <text font-size="12" x="35.353125" y="30">xbd:Code.EQF</text>
         <g transform="translate(335.378125,0)"/>
      </g>
      <line x1="33"
            y1="498"
            x2="55"
            y2="498"
            class="type-structure-optional"/>
      <text font-size="11"
            fill="black"
            x="53"
            y="496"
            text-anchor="end">0..*</text>
      <line x1="33"
            y1="450"
            x2="33"
            y2="498"
            class="type-structure-optional"/>
      <g transform="translate(55,528)">
         <rect width="372.315625" height="18" class="element-upper"/>
         <rect width="372.315625" height="18" y="18" class="element-lower"/>
         <text font-size="12" x="3.6" y="12" font-weight="bold">zugangsberechtigungWeiterfuehrendesStudiumCodeISCED2011</text>
         <line x1="0" y1="18" x2="372.315625" y2="18"/>
         <text font-size="12" fill="grey" x="3.6" y="30">type</text>
         <line x1="31.753125" y1="18" x2="31.753125" y2="36"/>
         <text font-size="12" x="35.353125" y="30">xbd:Code.ISCED2011</text>
         <g transform="translate(372.315625,0)"/>
      </g>
      <line x1="33"
            y1="546"
            x2="55"
            y2="546"
            class="type-structure-optional"/>
      <text font-size="11"
            fill="black"
            x="53"
            y="544"
            text-anchor="end">0..*</text>
      <line x1="33"
            y1="498"
            x2="33"
            y2="546"
            class="type-structure-optional"/>
      <g transform="translate(55,576)">
         <rect width="174.09687499999998" height="18" class="element-upper"/>
         <rect width="174.09687499999998"
               height="18"
               y="18"
               class="element-lower"/>
         <text font-size="12" x="3.6" y="12" font-weight="bold">xhs:diplomaSupplement (ref)</text>
         <line x1="0" y1="18" x2="174.09687499999998" y2="18"/>
         <text font-size="12" fill="grey" x="3.6" y="30">type</text>
         <line x1="31.753125" y1="18" x2="31.753125" y2="36"/>
         <text font-size="12" x="35.353125" y="30">(see element def.)</text>
         <g transform="translate(174.09687499999998,0)"/>
      </g>
      <line x1="33"
            y1="594"
            x2="55"
            y2="594"
            class="type-structure-optional"/>
      <text font-size="11"
            fill="black"
            x="53"
            y="592"
            text-anchor="end">0..1</text>
      <line x1="33"
            y1="546"
            x2="33"
            y2="594"
            class="type-structure-optional"/>
      <g transform="translate(55,624)">
         <rect width="137.78125" height="18" class="element-upper"/>
         <rect width="137.78125" height="18" y="18" class="element-lower"/>
         <text font-size="12" x="3.6" y="12" font-weight="bold">ds:Signature (ref)</text>
         <line x1="0" y1="18" x2="137.78125" y2="18"/>
         <text font-size="12" fill="grey" x="3.6" y="30">type</text>
         <line x1="31.753125" y1="18" x2="31.753125" y2="36"/>
         <text font-size="12" x="35.353125" y="30">(see element def.)</text>
         <g transform="translate(137.78125,0)"/>
      </g>
      <line x1="33"
            y1="642"
            x2="55"
            y2="642"
            class="type-structure-optional"/>
      <text font-size="11"
            fill="black"
            x="53"
            y="640"
            text-anchor="end">0..1</text>
      <line x1="33"
            y1="594"
            x2="33"
            y2="642"
            class="type-structure-optional"/>
      <circle cx="15"
              cy="18"
              r="10"
              stroke="black"
              fill="rgb(251, 251, 251)"/>
      <line x1="0"
            y1="18"
            x2="5"
            y2="18"
            class="type-structure-required"/>
      <line x1="25"
            y1="18"
            x2="33"
            y2="18"
            class="type-structure-required"/>
      <circle cx="10" cy="18" r="1.2" stroke="black" fill="black"/>
      <circle cx="15" cy="18" r="1.2" stroke="black" fill="black"/>
      <circle cx="20" cy="18" r="1.2" stroke="black" fill="black"/>
      <line x1="7" y1="18" x2="23" y2="18"/>
   </g>
</svg>
