<?xml version="1.0" encoding="UTF-8"?>
<svg xmlns="http://www.w3.org/2000/svg" width="304.84375" height="238">
   <defs>
      <style type="text/css">
                        text {
                            font-family: 'Arial';
                            fill: black;
                        }
                        text.at {
                            font-family: 'Arial';
                            fill: rgb(242, 152, 0);
                        }
                        line {
                            stroke: black;
                        }
                        line.type-structure {
                            stroke: black;
                        }
                        line.type-structure-optional {
                            stroke: black;
                            stroke-dasharray: 4, 4;
                        }
                        rect.attribute-upper {
                            stroke: black;
                            fill: rgb(255, 239, 211);
                        }
                        rect.element-upper {
                            stroke: black;
                            fill: rgb(215, 227, 249);
                        }
                        rect.element-lower {
                            stroke: black;
                            fill: rgb(236, 242, 252);
                        }
                        a text {
                            fill: black;
                        } 
                    </style>
   </defs>
   <rect width="294.84375"
         height="228"
         stroke-dasharray="3,3"
         rx="1"
         ry="1"
         style="stroke: grey;fill: white;"/>
   <text font-size="14" x="3.6" y="18" font-weight="bold">complexType Leistungsbeschreibung</text>
   <g transform="translate(10,34)">
      <g transform="translate(55,0)">
         <rect width="146.671875" height="18" class="element-upper"/>
         <rect width="146.671875" height="18" y="18" class="element-lower"/>
         <text font-size="12" x="3.6" y="12" font-weight="bold">beschreibung</text>
         <line x1="0" y1="18" x2="146.671875" y2="18"/>
         <text font-size="12" fill="grey" x="3.6" y="30">type</text>
         <line x1="31.753125" y1="18" x2="31.753125" y2="36"/>
         <text font-size="12" x="35.353125" y="30">xbd:String.Localized</text>
         <g transform="translate(146.671875,0)"/>
      </g>
      <line x1="33"
            y1="18"
            x2="55"
            y2="18"
            class="type-structure-optional"/>
      <text font-size="11" fill="black" x="53" y="16" text-anchor="end">0..1</text>
      <line x1="33"
            y1="18"
            x2="33"
            y2="18"
            class="type-structure-optional"/>
      <g transform="translate(55,48)">
         <rect width="96.6875" height="18" class="element-upper"/>
         <rect width="96.6875" height="18" y="18" class="element-lower"/>
         <text font-size="12" x="3.6" y="12" font-weight="bold">umfangInSWS</text>
         <line x1="0" y1="18" x2="96.6875" y2="18"/>
         <text font-size="12" fill="grey" x="3.6" y="30">type</text>
         <line x1="31.753125" y1="18" x2="31.753125" y2="36"/>
         <text font-size="12" x="35.353125" y="30">xs:decimal</text>
         <g transform="translate(96.6875,0)"/>
      </g>
      <line x1="33"
            y1="66"
            x2="55"
            y2="66"
            class="type-structure-optional"/>
      <text font-size="11" fill="black" x="53" y="64" text-anchor="end">0..1</text>
      <line x1="33"
            y1="18"
            x2="33"
            y2="66"
            class="type-structure-optional"/>
      <g transform="translate(55,96)">
         <rect width="223.84375" height="18" class="element-upper"/>
         <rect width="223.84375" height="18" y="18" class="element-lower"/>
         <text font-size="12" x="3.6" y="12" font-weight="bold">modulbeschreibungNachKMK</text>
         <line x1="0" y1="18" x2="223.84375" y2="18"/>
         <text font-size="12" fill="grey" x="3.6" y="30">type</text>
         <line x1="31.753125" y1="18" x2="31.753125" y2="36"/>
         <text font-size="12" x="35.353125" y="30">xhs:ModulbeschreibungNachKMK</text>
         <g transform="translate(223.84375,0)"/>
      </g>
      <line x1="33"
            y1="114"
            x2="55"
            y2="114"
            class="type-structure-optional"/>
      <text font-size="11"
            fill="black"
            x="53"
            y="112"
            text-anchor="end">0..1</text>
      <line x1="33"
            y1="66"
            x2="33"
            y2="114"
            class="type-structure-optional"/>
      <g transform="translate(55,144)">
         <rect width="132.26874999999998" height="18" class="element-upper"/>
         <rect width="132.26874999999998"
               height="18"
               y="18"
               class="element-lower"/>
         <text font-size="12" x="3.6" y="12" font-weight="bold">weitereInformationen</text>
         <line x1="0" y1="18" x2="132.26874999999998" y2="18"/>
         <text font-size="12" fill="grey" x="3.6" y="30">type</text>
         <line x1="31.753125" y1="18" x2="31.753125" y2="36"/>
         <text font-size="12" x="35.353125" y="30">xs:anyURI</text>
         <g transform="translate(132.26874999999998,0)"/>
      </g>
      <line x1="33"
            y1="162"
            x2="55"
            y2="162"
            class="type-structure-optional"/>
      <text font-size="11"
            fill="black"
            x="53"
            y="160"
            text-anchor="end">0..1</text>
      <line x1="33"
            y1="114"
            x2="33"
            y2="162"
            class="type-structure-optional"/>
      <circle cx="15"
              cy="18"
              r="10"
              stroke="black"
              fill="rgb(251, 251, 251)"/>
      <line x1="0"
            y1="18"
            x2="5"
            y2="18"
            class="type-structure-optional"/>
      <line x1="25"
            y1="18"
            x2="33"
            y2="18"
            class="type-structure-optional"/>
      <circle cx="10" cy="18" r="1.2" stroke="black" fill="black"/>
      <circle cx="15" cy="18" r="1.2" stroke="black" fill="black"/>
      <circle cx="20" cy="18" r="1.2" stroke="black" fill="black"/>
      <line x1="7" y1="18" x2="23" y2="18"/>
   </g>
</svg>
