<?xml version="1.0" encoding="UTF-8"?>
<svg xmlns="http://www.w3.org/2000/svg" width="538.425" height="1390">
   <defs>
      <style type="text/css">
                        text {
                            font-family: 'Arial';
                            fill: black;
                        }
                        text.at {
                            font-family: 'Arial';
                            fill: rgb(242, 152, 0);
                        }
                        line {
                            stroke: black;
                        }
                        line.type-structure {
                            stroke: black;
                        }
                        line.type-structure-optional {
                            stroke: black;
                            stroke-dasharray: 4, 4;
                        }
                        rect.attribute-upper {
                            stroke: black;
                            fill: rgb(255, 239, 211);
                        }
                        rect.element-upper {
                            stroke: black;
                            fill: rgb(215, 227, 249);
                        }
                        rect.element-lower {
                            stroke: black;
                            fill: rgb(236, 242, 252);
                        }
                        a text {
                            fill: black;
                        } 
                    </style>
   </defs>
   <rect width="528.425"
         height="1380"
         stroke-dasharray="3,3"
         rx="1"
         ry="1"
         style="stroke: grey;fill: white;"/>
   <text font-size="14" x="3.6" y="18" font-weight="bold">complexType Leistung</text>
   <g transform="translate(10,34)">
      <g transform="translate(55,0)">
         <rect width="146.671875" height="18" class="element-upper"/>
         <rect width="146.671875" height="18" y="18" class="element-lower"/>
         <text font-size="12" x="3.6" y="12" font-weight="bold">bezeichnung</text>
         <line x1="0" y1="18" x2="146.671875" y2="18"/>
         <text font-size="12" fill="grey" x="3.6" y="30">type</text>
         <line x1="31.753125" y1="18" x2="31.753125" y2="36"/>
         <text font-size="12" x="35.353125" y="30">xbd:String.Localized</text>
         <g transform="translate(146.671875,0)"/>
      </g>
      <line x1="33"
            y1="18"
            x2="55"
            y2="18"
            class="type-structure-required"/>
      <text font-size="11" fill="black" x="53" y="16" text-anchor="end"/>
      <line x1="33"
            y1="18"
            x2="33"
            y2="18"
            class="type-structure-required"/>
      <g transform="translate(55,48)">
         <rect width="146.90625" height="18" class="element-upper"/>
         <rect width="146.90625" height="18" y="18" class="element-lower"/>
         <text font-size="12" x="3.6" y="12" font-weight="bold">bezeichnungAlsHTML</text>
         <line x1="0" y1="18" x2="146.90625" y2="18"/>
         <text font-size="12" fill="grey" x="3.6" y="30">type</text>
         <line x1="31.753125" y1="18" x2="31.753125" y2="36"/>
         <text font-size="12" x="35.353125" y="30">din91379:datatypeE</text>
         <g transform="translate(146.90625,0)"/>
      </g>
      <line x1="33"
            y1="66"
            x2="55"
            y2="66"
            class="type-structure-optional"/>
      <text font-size="11" fill="black" x="53" y="64" text-anchor="end">0..1</text>
      <line x1="33"
            y1="18"
            x2="33"
            y2="66"
            class="type-structure-required"/>
      <g transform="translate(55,96)">
         <rect width="146.671875" height="18" class="element-upper"/>
         <rect width="146.671875" height="18" y="18" class="element-lower"/>
         <text font-size="12" x="3.6" y="12" font-weight="bold">angestrebterAbschluss</text>
         <line x1="0" y1="18" x2="146.671875" y2="18"/>
         <text font-size="12" fill="grey" x="3.6" y="30">type</text>
         <line x1="31.753125" y1="18" x2="31.753125" y2="36"/>
         <text font-size="12" x="35.353125" y="30">xbd:String.Localized</text>
         <g transform="translate(146.671875,0)"/>
      </g>
      <line x1="33"
            y1="114"
            x2="55"
            y2="114"
            class="type-structure-optional"/>
      <text font-size="11"
            fill="black"
            x="53"
            y="112"
            text-anchor="end">0..1</text>
      <line x1="33"
            y1="66"
            x2="33"
            y2="114"
            class="type-structure-required"/>
      <g transform="translate(55,144)">
         <rect width="96.6875" height="18" class="element-upper"/>
         <rect width="96.6875" height="18" y="18" class="element-lower"/>
         <text font-size="12" x="3.6" y="12" font-weight="bold">fachsemester</text>
         <line x1="0" y1="18" x2="96.6875" y2="18"/>
         <text font-size="12" fill="grey" x="3.6" y="30">type</text>
         <line x1="31.753125" y1="18" x2="31.753125" y2="36"/>
         <text font-size="12" x="35.353125" y="30">xs:decimal</text>
         <g transform="translate(96.6875,0)"/>
      </g>
      <line x1="33"
            y1="162"
            x2="55"
            y2="162"
            class="type-structure-optional"/>
      <text font-size="11"
            fill="black"
            x="53"
            y="160"
            text-anchor="end">0..1</text>
      <line x1="33"
            y1="114"
            x2="33"
            y2="162"
            class="type-structure-required"/>
      <g transform="translate(55,192)">
         <rect width="156.328125" height="18" class="element-upper"/>
         <rect width="156.328125" height="18" y="18" class="element-lower"/>
         <text font-size="12" x="3.6" y="12" font-weight="bold">schluesselISCED2011</text>
         <line x1="0" y1="18" x2="156.328125" y2="18"/>
         <text font-size="12" fill="grey" x="3.6" y="30">type</text>
         <line x1="31.753125" y1="18" x2="31.753125" y2="36"/>
         <text font-size="12" x="35.353125" y="30">xbd:Code.ISCED2011</text>
         <g transform="translate(156.328125,0)"/>
      </g>
      <line x1="33"
            y1="210"
            x2="55"
            y2="210"
            class="type-structure-optional"/>
      <text font-size="11"
            fill="black"
            x="53"
            y="208"
            text-anchor="end">0..1</text>
      <line x1="33"
            y1="162"
            x2="33"
            y2="210"
            class="type-structure-required"/>
      <g transform="translate(55,240)">
         <rect width="164.984375" height="18" class="element-upper"/>
         <rect width="164.984375" height="18" y="18" class="element-lower"/>
         <text font-size="12" x="3.6" y="12" font-weight="bold">schluesselISCEDF2013</text>
         <line x1="0" y1="18" x2="164.984375" y2="18"/>
         <text font-size="12" fill="grey" x="3.6" y="30">type</text>
         <line x1="31.753125" y1="18" x2="31.753125" y2="36"/>
         <text font-size="12" x="35.353125" y="30">xbd:Code.ISCEDF2013</text>
         <g transform="translate(164.984375,0)"/>
      </g>
      <line x1="33"
            y1="258"
            x2="55"
            y2="258"
            class="type-structure-optional"/>
      <text font-size="11"
            fill="black"
            x="53"
            y="256"
            text-anchor="end">0..1</text>
      <line x1="33"
            y1="210"
            x2="33"
            y2="258"
            class="type-structure-required"/>
      <g transform="translate(55,288)">
         <rect width="198.6875" height="18" class="element-upper"/>
         <rect width="198.6875" height="18" y="18" class="element-lower"/>
         <text font-size="12" x="3.6" y="12" font-weight="bold">faecherschluesselDESTATIS</text>
         <line x1="0" y1="18" x2="198.6875" y2="18"/>
         <text font-size="12" fill="grey" x="3.6" y="30">type</text>
         <line x1="31.753125" y1="18" x2="31.753125" y2="36"/>
         <text font-size="12" x="35.353125" y="30">xhs:Code.Faecherschluessel</text>
         <g transform="translate(198.6875,0)"/>
      </g>
      <line x1="33"
            y1="306"
            x2="55"
            y2="306"
            class="type-structure-optional"/>
      <text font-size="11"
            fill="black"
            x="53"
            y="304"
            text-anchor="end">0..1</text>
      <line x1="33"
            y1="258"
            x2="33"
            y2="306"
            class="type-structure-required"/>
      <g transform="translate(55,336)">
         <rect width="117.640625" height="18" class="element-upper"/>
         <rect width="117.640625" height="18" y="18" class="element-lower"/>
         <text font-size="12" x="3.6" y="12" font-weight="bold">schluesselEQF</text>
         <line x1="0" y1="18" x2="117.640625" y2="18"/>
         <text font-size="12" fill="grey" x="3.6" y="30">type</text>
         <line x1="31.753125" y1="18" x2="31.753125" y2="36"/>
         <text font-size="12" x="35.353125" y="30">xbd:Code.EQF</text>
         <g transform="translate(117.640625,0)"/>
      </g>
      <line x1="33"
            y1="354"
            x2="55"
            y2="354"
            class="type-structure-optional"/>
      <text font-size="11"
            fill="black"
            x="53"
            y="352"
            text-anchor="end">0..1</text>
      <line x1="33"
            y1="306"
            x2="33"
            y2="354"
            class="type-structure-required"/>
      <g transform="translate(55,384)">
         <rect width="77.784375" height="18" class="element-upper"/>
         <rect width="77.784375" height="18" y="18" class="element-lower"/>
         <text font-size="12" x="3.6" y="12" font-weight="bold">leistungsart</text>
         <line x1="0" y1="18" x2="77.784375" y2="18"/>
         <text font-size="12" fill="grey" x="3.6" y="30">type</text>
         <line x1="31.753125" y1="18" x2="31.753125" y2="36"/>
         <g transform="translate(77.784375,0)">
            <g transform="translate(55,0)">
               <rect width="163.109375" height="18" class="element-upper"/>
               <rect width="163.109375" height="18" y="18" class="element-lower"/>
               <text font-size="12" x="3.6" y="12" font-weight="bold">code</text>
               <line x1="0" y1="18" x2="163.109375" y2="18"/>
               <text font-size="12" fill="grey" x="3.6" y="30">type</text>
               <line x1="31.753125" y1="18" x2="31.753125" y2="36"/>
               <text font-size="12" x="35.353125" y="30">xhs:Code.Leistungsart</text>
               <g transform="translate(163.109375,0)"/>
            </g>
            <line x1="33"
                  y1="18"
                  x2="55"
                  y2="18"
                  class="type-structure-required"/>
            <text font-size="11" fill="black" x="53" y="16" text-anchor="end"/>
            <line x1="33"
                  y1="18"
                  x2="33"
                  y2="18"
                  class="type-structure-required"/>
            <g transform="translate(55,48)">
               <rect width="146.671875" height="18" class="element-upper"/>
               <rect width="146.671875" height="18" y="18" class="element-lower"/>
               <text font-size="12" x="3.6" y="12" font-weight="bold">nichtGelisteterWert</text>
               <line x1="0" y1="18" x2="146.671875" y2="18"/>
               <text font-size="12" fill="grey" x="3.6" y="30">type</text>
               <line x1="31.753125" y1="18" x2="31.753125" y2="36"/>
               <text font-size="12" x="35.353125" y="30">xbd:String.Localized</text>
               <g transform="translate(146.671875,0)"/>
            </g>
            <line x1="33"
                  y1="66"
                  x2="55"
                  y2="66"
                  class="type-structure-optional"/>
            <text font-size="11" fill="black" x="53" y="64" text-anchor="end">0..1</text>
            <line x1="33"
                  y1="18"
                  x2="33"
                  y2="66"
                  class="type-structure-optional"/>
            <circle cx="15"
                    cy="18"
                    r="10"
                    stroke="black"
                    fill="rgb(251, 251, 251)"/>
            <line x1="0"
                  y1="18"
                  x2="5"
                  y2="18"
                  class="type-structure-required"/>
            <line x1="25"
                  y1="18"
                  x2="33"
                  y2="18"
                  class="type-structure-required"/>
            <circle cx="10" cy="18" r="1.2" stroke="black" fill="black"/>
            <circle cx="15" cy="18" r="1.2" stroke="black" fill="black"/>
            <circle cx="20" cy="18" r="1.2" stroke="black" fill="black"/>
            <line x1="7" y1="18" x2="23" y2="18"/>
         </g>
      </g>
      <line x1="33"
            y1="402"
            x2="55"
            y2="402"
            class="type-structure-required"/>
      <text font-size="11"
            fill="black"
            x="53"
            y="400"
            text-anchor="end"/>
      <line x1="33"
            y1="354"
            x2="33"
            y2="402"
            class="type-structure-required"/>
      <g transform="translate(55,480)">
         <rect width="128.703125" height="18" class="element-upper"/>
         <rect width="128.703125" height="18" y="18" class="element-lower"/>
         <text font-size="12" x="3.6" y="12" font-weight="bold">id</text>
         <line x1="0" y1="18" x2="128.703125" y2="18"/>
         <text font-size="12" fill="grey" x="3.6" y="30">type</text>
         <line x1="31.753125" y1="18" x2="31.753125" y2="36"/>
         <text font-size="12" x="35.353125" y="30">xhs:Identifikation</text>
         <g transform="translate(128.703125,0)"/>
      </g>
      <line x1="33"
            y1="498"
            x2="55"
            y2="498"
            class="type-structure-optional"/>
      <text font-size="11"
            fill="black"
            x="53"
            y="496"
            text-anchor="end">0..1</text>
      <line x1="33"
            y1="402"
            x2="33"
            y2="498"
            class="type-structure-required"/>
      <g transform="translate(55,528)">
         <rect width="190.734375" height="18" class="element-upper"/>
         <rect width="190.734375" height="18" y="18" class="element-lower"/>
         <text font-size="12" x="3.6" y="12" font-weight="bold">beschreibung</text>
         <line x1="0" y1="18" x2="190.734375" y2="18"/>
         <text font-size="12" fill="grey" x="3.6" y="30">type</text>
         <line x1="31.753125" y1="18" x2="31.753125" y2="36"/>
         <text font-size="12" x="35.353125" y="30">xhs:Leistungsbeschreibung</text>
         <g transform="translate(190.734375,0)"/>
      </g>
      <line x1="33"
            y1="546"
            x2="55"
            y2="546"
            class="type-structure-optional"/>
      <text font-size="11"
            fill="black"
            x="53"
            y="544"
            text-anchor="end">0..1</text>
      <line x1="33"
            y1="498"
            x2="33"
            y2="546"
            class="type-structure-required"/>
      <g transform="translate(55,576)">
         <rect width="97.034375" height="18" class="element-upper"/>
         <rect width="97.034375" height="18" y="18" class="element-lower"/>
         <text font-size="12" x="3.6" y="12" font-weight="bold">leistungsstatus</text>
         <line x1="0" y1="18" x2="97.034375" y2="18"/>
         <text font-size="12" fill="grey" x="3.6" y="30">type</text>
         <line x1="31.753125" y1="18" x2="31.753125" y2="36"/>
         <g transform="translate(97.034375,0)">
            <g transform="translate(55,0)">
               <rect width="181.390625" height="18" class="element-upper"/>
               <rect width="181.390625" height="18" y="18" class="element-lower"/>
               <text font-size="12" x="3.6" y="12" font-weight="bold">code</text>
               <line x1="0" y1="18" x2="181.390625" y2="18"/>
               <text font-size="12" fill="grey" x="3.6" y="30">type</text>
               <line x1="31.753125" y1="18" x2="31.753125" y2="36"/>
               <text font-size="12" x="35.353125" y="30">xhs:Code.Leistungsstatus</text>
               <g transform="translate(181.390625,0)"/>
            </g>
            <line x1="33"
                  y1="18"
                  x2="55"
                  y2="18"
                  class="type-structure-required"/>
            <text font-size="11" fill="black" x="53" y="16" text-anchor="end"/>
            <line x1="33"
                  y1="18"
                  x2="33"
                  y2="18"
                  class="type-structure-required"/>
            <g transform="translate(55,48)">
               <rect width="146.671875" height="18" class="element-upper"/>
               <rect width="146.671875" height="18" y="18" class="element-lower"/>
               <text font-size="12" x="3.6" y="12" font-weight="bold">nichtGelisteterWert</text>
               <line x1="0" y1="18" x2="146.671875" y2="18"/>
               <text font-size="12" fill="grey" x="3.6" y="30">type</text>
               <line x1="31.753125" y1="18" x2="31.753125" y2="36"/>
               <text font-size="12" x="35.353125" y="30">xbd:String.Localized</text>
               <g transform="translate(146.671875,0)"/>
            </g>
            <line x1="33"
                  y1="66"
                  x2="55"
                  y2="66"
                  class="type-structure-optional"/>
            <text font-size="11" fill="black" x="53" y="64" text-anchor="end">0..1</text>
            <line x1="33"
                  y1="18"
                  x2="33"
                  y2="66"
                  class="type-structure-optional"/>
            <circle cx="15"
                    cy="18"
                    r="10"
                    stroke="black"
                    fill="rgb(251, 251, 251)"/>
            <line x1="0"
                  y1="18"
                  x2="5"
                  y2="18"
                  class="type-structure-required"/>
            <line x1="25"
                  y1="18"
                  x2="33"
                  y2="18"
                  class="type-structure-required"/>
            <circle cx="10" cy="18" r="1.2" stroke="black" fill="black"/>
            <circle cx="15" cy="18" r="1.2" stroke="black" fill="black"/>
            <circle cx="20" cy="18" r="1.2" stroke="black" fill="black"/>
            <line x1="7" y1="18" x2="23" y2="18"/>
         </g>
      </g>
      <line x1="33"
            y1="594"
            x2="55"
            y2="594"
            class="type-structure-optional"/>
      <text font-size="11"
            fill="black"
            x="53"
            y="592"
            text-anchor="end">0..1</text>
      <line x1="33"
            y1="546"
            x2="33"
            y2="594"
            class="type-structure-required"/>
      <g transform="translate(55,672)">
         <rect width="157.03437499999998" height="18" class="element-upper"/>
         <rect width="157.03437499999998"
               height="18"
               y="18"
               class="element-lower"/>
         <text font-size="12" x="3.6" y="12" font-weight="bold">leistungsbenotungsstatus</text>
         <line x1="0" y1="18" x2="157.03437499999998" y2="18"/>
         <text font-size="12" fill="grey" x="3.6" y="30">type</text>
         <line x1="31.753125" y1="18" x2="31.753125" y2="36"/>
         <g transform="translate(157.03437499999998,0)">
            <g transform="translate(55,0)">
               <rect width="240.390625" height="18" class="element-upper"/>
               <rect width="240.390625" height="18" y="18" class="element-lower"/>
               <text font-size="12" x="3.6" y="12" font-weight="bold">code</text>
               <line x1="0" y1="18" x2="240.390625" y2="18"/>
               <text font-size="12" fill="grey" x="3.6" y="30">type</text>
               <line x1="31.753125" y1="18" x2="31.753125" y2="36"/>
               <text font-size="12" x="35.353125" y="30">xhs:Code.Leistungsbenotungsstatus</text>
               <g transform="translate(240.390625,0)"/>
            </g>
            <line x1="33"
                  y1="18"
                  x2="55"
                  y2="18"
                  class="type-structure-required"/>
            <text font-size="11" fill="black" x="53" y="16" text-anchor="end"/>
            <line x1="33"
                  y1="18"
                  x2="33"
                  y2="18"
                  class="type-structure-required"/>
            <g transform="translate(55,48)">
               <rect width="146.671875" height="18" class="element-upper"/>
               <rect width="146.671875" height="18" y="18" class="element-lower"/>
               <text font-size="12" x="3.6" y="12" font-weight="bold">nichtGelisteterWert</text>
               <line x1="0" y1="18" x2="146.671875" y2="18"/>
               <text font-size="12" fill="grey" x="3.6" y="30">type</text>
               <line x1="31.753125" y1="18" x2="31.753125" y2="36"/>
               <text font-size="12" x="35.353125" y="30">xbd:String.Localized</text>
               <g transform="translate(146.671875,0)"/>
            </g>
            <line x1="33"
                  y1="66"
                  x2="55"
                  y2="66"
                  class="type-structure-optional"/>
            <text font-size="11" fill="black" x="53" y="64" text-anchor="end">0..1</text>
            <line x1="33"
                  y1="18"
                  x2="33"
                  y2="66"
                  class="type-structure-optional"/>
            <circle cx="15"
                    cy="18"
                    r="10"
                    stroke="black"
                    fill="rgb(251, 251, 251)"/>
            <line x1="0"
                  y1="18"
                  x2="5"
                  y2="18"
                  class="type-structure-required"/>
            <line x1="25"
                  y1="18"
                  x2="33"
                  y2="18"
                  class="type-structure-required"/>
            <circle cx="10" cy="18" r="1.2" stroke="black" fill="black"/>
            <circle cx="15" cy="18" r="1.2" stroke="black" fill="black"/>
            <circle cx="20" cy="18" r="1.2" stroke="black" fill="black"/>
            <line x1="7" y1="18" x2="23" y2="18"/>
         </g>
      </g>
      <line x1="33"
            y1="690"
            x2="55"
            y2="690"
            class="type-structure-optional"/>
      <text font-size="11"
            fill="black"
            x="53"
            y="688"
            text-anchor="end">0..1</text>
      <line x1="33"
            y1="594"
            x2="33"
            y2="690"
            class="type-structure-required"/>
      <g transform="translate(55,768)">
         <rect width="97.703125" height="18" class="element-upper"/>
         <rect width="97.703125" height="18" y="18" class="element-lower"/>
         <text font-size="12" x="3.6" y="12" font-weight="bold">benotet</text>
         <line x1="0" y1="18" x2="97.703125" y2="18"/>
         <text font-size="12" fill="grey" x="3.6" y="30">type</text>
         <line x1="31.753125" y1="18" x2="31.753125" y2="36"/>
         <text font-size="12" x="35.353125" y="30">xs:boolean</text>
         <g transform="translate(97.703125,0)"/>
      </g>
      <line x1="33"
            y1="786"
            x2="55"
            y2="786"
            class="type-structure-required"/>
      <text font-size="11"
            fill="black"
            x="53"
            y="784"
            text-anchor="end"/>
      <line x1="33"
            y1="690"
            x2="33"
            y2="786"
            class="type-structure-required"/>
      <g transform="translate(55,816)">
         <rect width="112.734375" height="18" class="element-upper"/>
         <rect width="112.734375" height="18" y="18" class="element-lower"/>
         <text font-size="12" x="3.6" y="12" font-weight="bold">benotung</text>
         <line x1="0" y1="18" x2="112.734375" y2="18"/>
         <text font-size="12" fill="grey" x="3.6" y="30">type</text>
         <line x1="31.753125" y1="18" x2="31.753125" y2="36"/>
         <text font-size="12" x="35.353125" y="30">xbd:Benotung</text>
         <g transform="translate(112.734375,0)"/>
      </g>
      <line x1="33"
            y1="834"
            x2="55"
            y2="834"
            class="type-structure-optional"/>
      <text font-size="11"
            fill="black"
            x="53"
            y="832"
            text-anchor="end">0..1</text>
      <line x1="33"
            y1="786"
            x2="33"
            y2="834"
            class="type-structure-optional"/>
      <g transform="translate(55,864)">
         <rect width="208.84687499999998" height="18" class="element-upper"/>
         <rect width="208.84687499999998"
               height="18"
               y="18"
               class="element-lower"/>
         <text font-size="12" x="3.6" y="12" font-weight="bold">erforderlicheLeistungspunkteECTS</text>
         <line x1="0" y1="18" x2="208.84687499999998" y2="18"/>
         <text font-size="12" fill="grey" x="3.6" y="30">type</text>
         <line x1="31.753125" y1="18" x2="31.753125" y2="36"/>
         <text font-size="12" x="35.353125" y="30">xs:decimal</text>
         <g transform="translate(208.84687499999998,0)"/>
      </g>
      <line x1="33"
            y1="882"
            x2="55"
            y2="882"
            class="type-structure-optional"/>
      <text font-size="11"
            fill="black"
            x="53"
            y="880"
            text-anchor="end">0..1</text>
      <line x1="33"
            y1="834"
            x2="33"
            y2="882"
            class="type-structure-optional"/>
      <g transform="translate(55,912)">
         <rect width="190.84687499999998" height="18" class="element-upper"/>
         <rect width="190.84687499999998"
               height="18"
               y="18"
               class="element-lower"/>
         <text font-size="12" x="3.6" y="12" font-weight="bold">erbrachteLeistungspunkteECTS</text>
         <line x1="0" y1="18" x2="190.84687499999998" y2="18"/>
         <text font-size="12" fill="grey" x="3.6" y="30">type</text>
         <line x1="31.753125" y1="18" x2="31.753125" y2="36"/>
         <text font-size="12" x="35.353125" y="30">xs:decimal</text>
         <g transform="translate(190.84687499999998,0)"/>
      </g>
      <line x1="33"
            y1="930"
            x2="55"
            y2="930"
            class="type-structure-optional"/>
      <text font-size="11"
            fill="black"
            x="53"
            y="928"
            text-anchor="end">0..1</text>
      <line x1="33"
            y1="882"
            x2="33"
            y2="930"
            class="type-structure-optional"/>
      <g transform="translate(55,960)">
         <rect width="161.015625" height="18" class="element-upper"/>
         <rect width="161.015625" height="18" y="18" class="element-lower"/>
         <text font-size="12" x="3.6" y="12" font-weight="bold">absolvierteVersuche</text>
         <line x1="0" y1="18" x2="161.015625" y2="18"/>
         <text font-size="12" fill="grey" x="3.6" y="30">type</text>
         <line x1="31.753125" y1="18" x2="31.753125" y2="36"/>
         <text font-size="12" x="35.353125" y="30">xs:nonNegativeInteger</text>
         <g transform="translate(161.015625,0)"/>
      </g>
      <line x1="33"
            y1="978"
            x2="55"
            y2="978"
            class="type-structure-optional"/>
      <text font-size="11"
            fill="black"
            x="53"
            y="976"
            text-anchor="end">0..1</text>
      <line x1="33"
            y1="930"
            x2="33"
            y2="978"
            class="type-structure-optional"/>
      <g transform="translate(55,1008)">
         <rect width="146.671875" height="18" class="element-upper"/>
         <rect width="146.671875" height="18" y="18" class="element-lower"/>
         <text font-size="12" x="3.6" y="12" font-weight="bold">lehrendeOderPruefende</text>
         <line x1="0" y1="18" x2="146.671875" y2="18"/>
         <text font-size="12" fill="grey" x="3.6" y="30">type</text>
         <line x1="31.753125" y1="18" x2="31.753125" y2="36"/>
         <text font-size="12" x="35.353125" y="30">xbd:String.Localized</text>
         <g transform="translate(146.671875,0)"/>
      </g>
      <line x1="33"
            y1="1026"
            x2="55"
            y2="1026"
            class="type-structure-optional"/>
      <text font-size="11"
            fill="black"
            x="53"
            y="1024"
            text-anchor="end">0..1</text>
      <line x1="33"
            y1="978"
            x2="33"
            y2="1026"
            class="type-structure-optional"/>
      <g transform="translate(55,1056)">
         <rect width="183.86249999999998" height="18" class="element-upper"/>
         <rect width="183.86249999999998"
               height="18"
               y="18"
               class="element-lower"/>
         <text font-size="12" x="3.6" y="12" font-weight="bold">datumDerLeistungserbringung</text>
         <line x1="0" y1="18" x2="183.86249999999998" y2="18"/>
         <text font-size="12" fill="grey" x="3.6" y="30">type</text>
         <line x1="31.753125" y1="18" x2="31.753125" y2="36"/>
         <text font-size="12" x="35.353125" y="30">xs:date</text>
         <g transform="translate(183.86249999999998,0)"/>
      </g>
      <line x1="33"
            y1="1074"
            x2="55"
            y2="1074"
            class="type-structure-optional"/>
      <text font-size="11"
            fill="black"
            x="53"
            y="1072"
            text-anchor="end">0..1</text>
      <line x1="33"
            y1="1026"
            x2="33"
            y2="1074"
            class="type-structure-optional"/>
      <g transform="translate(55,1104)">
         <rect width="203.08124999999998" height="18" class="element-upper"/>
         <rect width="203.08124999999998"
               height="18"
               y="18"
               class="element-lower"/>
         <text font-size="12" x="3.6" y="12" font-weight="bold">semesterDerLeistungserbringung</text>
         <line x1="0" y1="18" x2="203.08124999999998" y2="18"/>
         <text font-size="12" fill="grey" x="3.6" y="30">type</text>
         <line x1="31.753125" y1="18" x2="31.753125" y2="36"/>
         <text font-size="12" x="35.353125" y="30">xhs:Studienzeitraum</text>
         <g transform="translate(203.08124999999998,0)"/>
      </g>
      <line x1="33"
            y1="1122"
            x2="55"
            y2="1122"
            class="type-structure-optional"/>
      <text font-size="11"
            fill="black"
            x="53"
            y="1120"
            text-anchor="end">0..1</text>
      <line x1="33"
            y1="1074"
            x2="33"
            y2="1122"
            class="type-structure-optional"/>
      <g transform="translate(55,1152)">
         <rect width="149.03125" height="18" class="element-upper"/>
         <rect width="149.03125" height="18" y="18" class="element-lower"/>
         <text font-size="12" x="3.6" y="12" font-weight="bold">sprache</text>
         <line x1="0" y1="18" x2="149.03125" y2="18"/>
         <text font-size="12" fill="grey" x="3.6" y="30">type</text>
         <line x1="31.753125" y1="18" x2="31.753125" y2="36"/>
         <text font-size="12" x="35.353125" y="30">xbd:Code.Language</text>
         <g transform="translate(149.03125,0)"/>
      </g>
      <line x1="33"
            y1="1170"
            x2="55"
            y2="1170"
            class="type-structure-optional"/>
      <text font-size="11"
            fill="black"
            x="53"
            y="1168"
            text-anchor="end">0..*</text>
      <line x1="33"
            y1="1122"
            x2="33"
            y2="1170"
            class="type-structure-optional"/>
      <g transform="translate(55,1200)">
         <rect width="194.734375" height="18" class="element-upper"/>
         <rect width="194.734375" height="18" y="18" class="element-lower"/>
         <text font-size="12" x="3.6" y="12" font-weight="bold">externErbrachteLeistung</text>
         <line x1="0" y1="18" x2="194.734375" y2="18"/>
         <text font-size="12" fill="grey" x="3.6" y="30">type</text>
         <line x1="31.753125" y1="18" x2="31.753125" y2="36"/>
         <text font-size="12" x="35.353125" y="30">xhs:ExternErbrachteLeistung</text>
         <g transform="translate(194.734375,0)"/>
      </g>
      <line x1="33"
            y1="1218"
            x2="55"
            y2="1218"
            class="type-structure-optional"/>
      <text font-size="11"
            fill="black"
            x="53"
            y="1216"
            text-anchor="end">0..1</text>
      <line x1="33"
            y1="1170"
            x2="33"
            y2="1218"
            class="type-structure-optional"/>
      <g transform="translate(55,1248)">
         <rect width="161.53437499999998" height="18" class="element-upper"/>
         <rect width="161.53437499999998"
               height="18"
               y="18"
               class="element-lower"/>
         <text font-size="12" x="3.6" y="12" font-weight="bold">unbedenklichkeitsvermerk</text>
         <line x1="0" y1="18" x2="161.53437499999998" y2="18"/>
         <text font-size="12" fill="grey" x="3.6" y="30">type</text>
         <line x1="31.753125" y1="18" x2="31.753125" y2="36"/>
         <text font-size="12" x="35.353125" y="30">xbd:String.Localized</text>
         <g transform="translate(161.53437499999998,0)"/>
      </g>
      <line x1="33"
            y1="1266"
            x2="55"
            y2="1266"
            class="type-structure-optional"/>
      <text font-size="11"
            fill="black"
            x="53"
            y="1264"
            text-anchor="end">0..1</text>
      <line x1="33"
            y1="1218"
            x2="33"
            y2="1266"
            class="type-structure-optional"/>
      <g transform="translate(55,1296)">
         <rect width="107.734375" height="18" class="element-upper"/>
         <rect width="107.734375" height="18" y="18" class="element-lower"/>
         <text font-size="12" x="3.6" y="12" font-weight="bold">leistung</text>
         <line x1="0" y1="18" x2="107.734375" y2="18"/>
         <text font-size="12" fill="grey" x="3.6" y="30">type</text>
         <line x1="31.753125" y1="18" x2="31.753125" y2="36"/>
         <text font-size="12" x="35.353125" y="30">xhs:Leistung</text>
         <g transform="translate(107.734375,0)"/>
      </g>
      <line x1="33"
            y1="1314"
            x2="55"
            y2="1314"
            class="type-structure-optional"/>
      <text font-size="11"
            fill="black"
            x="53"
            y="1312"
            text-anchor="end">0..*</text>
      <line x1="33"
            y1="1266"
            x2="33"
            y2="1314"
            class="type-structure-optional"/>
      <circle cx="15"
              cy="18"
              r="10"
              stroke="black"
              fill="rgb(251, 251, 251)"/>
      <line x1="0"
            y1="18"
            x2="5"
            y2="18"
            class="type-structure-required"/>
      <line x1="25"
            y1="18"
            x2="33"
            y2="18"
            class="type-structure-required"/>
      <circle cx="10" cy="18" r="1.2" stroke="black" fill="black"/>
      <circle cx="15" cy="18" r="1.2" stroke="black" fill="black"/>
      <circle cx="20" cy="18" r="1.2" stroke="black" fill="black"/>
      <line x1="7" y1="18" x2="23" y2="18"/>
   </g>
</svg>
