<?xml version="1.0" encoding="UTF-8"?>
<svg xmlns="http://www.w3.org/2000/svg" width="215.228125" height="250">
   <defs>
      <style type="text/css">
                        text {
                            font-family: 'Arial';
                            fill: black;
                        }
                        text.at {
                            font-family: 'Arial';
                            fill: rgb(242, 152, 0);
                        }
                        line {
                            stroke: black;
                        }
                        line.type-structure {
                            stroke: black;
                        }
                        line.type-structure-optional {
                            stroke: black;
                            stroke-dasharray: 4, 4;
                        }
                        rect.attribute-upper {
                            stroke: black;
                            fill: rgb(255, 239, 211);
                        }
                        rect.element-upper {
                            stroke: black;
                            fill: rgb(215, 227, 249);
                        }
                        rect.element-lower {
                            stroke: black;
                            fill: rgb(236, 242, 252);
                        }
                        a text {
                            fill: black;
                        } 
                    </style>
   </defs>
   <rect width="205.228125"
         height="240"
         stroke-dasharray="3,3"
         rx="1"
         ry="1"
         style="stroke: grey;fill: white;"/>
   <text font-size="14" x="3.6" y="18" font-weight="bold">complexType Studierender</text>
   <text font-size="12" x="3.6" y="34.8"> (extension of xhs:NatuerlichePerson)</text>
   <g transform="translate(10,46)">
      <g transform="translate(55,0)">
         <rect width="128.703125" height="18" class="element-upper"/>
         <rect width="128.703125" height="18" y="18" class="element-lower"/>
         <text font-size="12" x="3.6" y="12" font-weight="bold">matrikelnummer</text>
         <line x1="0" y1="18" x2="128.703125" y2="18"/>
         <text font-size="12" fill="grey" x="3.6" y="30">type</text>
         <line x1="31.753125" y1="18" x2="31.753125" y2="36"/>
         <text font-size="12" x="35.353125" y="30">xhs:Identifikation</text>
         <g transform="translate(128.703125,0)"/>
      </g>
      <line x1="33"
            y1="18"
            x2="55"
            y2="18"
            class="type-structure-optional"/>
      <text font-size="11" fill="black" x="53" y="16" text-anchor="end">0..1</text>
      <line x1="33"
            y1="18"
            x2="33"
            y2="18"
            class="type-structure-optional"/>
      <g transform="translate(55,48)">
         <rect width="113.9875" height="18" class="element-upper"/>
         <rect width="113.9875" height="18" y="18" class="element-lower"/>
         <text font-size="12" x="3.6" y="12" font-weight="bold">ersteinschreibung</text>
         <line x1="0" y1="18" x2="113.9875" y2="18"/>
         <text font-size="12" fill="grey" x="3.6" y="30">type</text>
         <line x1="31.753125" y1="18" x2="31.753125" y2="36"/>
         <text font-size="12" x="35.353125" y="30">xs:date</text>
         <g transform="translate(113.9875,0)"/>
      </g>
      <line x1="33"
            y1="66"
            x2="55"
            y2="66"
            class="type-structure-optional"/>
      <text font-size="11" fill="black" x="53" y="64" text-anchor="end">0..1</text>
      <line x1="33"
            y1="18"
            x2="33"
            y2="66"
            class="type-structure-optional"/>
      <g transform="translate(55,96)">
         <rect width="123.76875" height="18" class="element-upper"/>
         <rect width="123.76875" height="18" y="18" class="element-lower"/>
         <text font-size="12" x="3.6" y="12" font-weight="bold">hochschulsemester</text>
         <line x1="0" y1="18" x2="123.76875" y2="18"/>
         <text font-size="12" fill="grey" x="3.6" y="30">type</text>
         <line x1="31.753125" y1="18" x2="31.753125" y2="36"/>
         <text font-size="12" x="35.353125" y="30">xs:decimal</text>
         <g transform="translate(123.76875,0)"/>
      </g>
      <line x1="33"
            y1="114"
            x2="55"
            y2="114"
            class="type-structure-optional"/>
      <text font-size="11"
            fill="black"
            x="53"
            y="112"
            text-anchor="end">0..1</text>
      <line x1="33"
            y1="66"
            x2="33"
            y2="114"
            class="type-structure-optional"/>
      <g transform="translate(55,144)">
         <rect width="107.8" height="18" class="element-upper"/>
         <rect width="107.8" height="18" y="18" class="element-lower"/>
         <text font-size="12" x="3.6" y="12" font-weight="bold">urlaubssemester</text>
         <line x1="0" y1="18" x2="107.8" y2="18"/>
         <text font-size="12" fill="grey" x="3.6" y="30">type</text>
         <line x1="31.753125" y1="18" x2="31.753125" y2="36"/>
         <text font-size="12" x="35.353125" y="30">xs:decimal</text>
         <g transform="translate(107.8,0)"/>
      </g>
      <line x1="33"
            y1="162"
            x2="55"
            y2="162"
            class="type-structure-optional"/>
      <text font-size="11"
            fill="black"
            x="53"
            y="160"
            text-anchor="end">0..1</text>
      <line x1="33"
            y1="114"
            x2="33"
            y2="162"
            class="type-structure-optional"/>
      <circle cx="15"
              cy="18"
              r="10"
              stroke="black"
              fill="rgb(251, 251, 251)"/>
      <line x1="0"
            y1="18"
            x2="5"
            y2="18"
            class="type-structure-optional"/>
      <line x1="25"
            y1="18"
            x2="33"
            y2="18"
            class="type-structure-optional"/>
      <circle cx="10" cy="18" r="1.2" stroke="black" fill="black"/>
      <circle cx="15" cy="18" r="1.2" stroke="black" fill="black"/>
      <circle cx="20" cy="18" r="1.2" stroke="black" fill="black"/>
      <line x1="7" y1="18" x2="23" y2="18"/>
   </g>
</svg>
